Coordinates
version=1
nRows=19
nColumns=36
inDegrees=yes

Units are S.I. units (second, meters, Newtons, ...)
If the header above contains a line with 'inDegrees', this indicates whether rotational values are in degrees (yes) or radians (no).

endheader
time	pelvis_tilt	pelvis_list	pelvis_rotation	pelvis_tx	pelvis_ty	pelvis_tz	hip_flexion_r	hip_adduction_r	hip_rotation_r	knee_angle_r	knee_angle_r_beta	ankle_angle_r	subtalar_angle_r	mtp_angle_r	hip_flexion_l	hip_adduction_l	hip_rotation_l	knee_angle_l	knee_angle_l_beta	ankle_angle_l	subtalar_angle_l	mtp_angle_l	lumbar_extension	lumbar_bending	lumbar_rotation	arm_flex_r	arm_add_r	arm_rot_r	elbow_flex_r	pro_sup_r	arm_flex_l	arm_add_l	arm_rot_l	elbow_flex_l	pro_sup_l
      0.00000000	     -1.96766180	     -0.90584734	      3.68107813	      0.74612027	      0.92550789	      0.00455268	      2.56548715	      4.23755906	     -2.61482476	      3.11021473	      0.05428349	     -1.98238827	    -15.25942389	     -6.26441230	      5.40069408	     -1.74586366	     -0.14981461	      5.85950079	      0.10226758	      7.16738195	     -2.49879524	     -6.26441230	     -4.15679992	      2.52849830	     -3.24362736	     34.53877261	     10.19485384	     53.56708009	    122.99236666	    108.94471858	     31.79148932	      8.62057614	     65.78109946	    121.21811159	    109.11657412
      0.01666670	     -3.64253817	     -0.86115481	      3.53105664	      0.74771376	      0.92272782	      0.00390988	      4.60889158	      4.01057687	     -3.67385226	      3.57991361	      0.06248128	      1.13305537	    -13.25727436	     -6.61846655	      7.70800375	     -1.36001444	     -0.58330803	      6.56199530	      0.11452842	      7.35337636	     -1.21406768	     -6.61846655	     -1.76712731	      2.44625047	     -3.01875350	     35.06600405	     10.15574531	     53.90109226	    125.90846496	    107.46334357	     33.28126616	      8.50927638	     67.34619332	    123.66236943	    107.48074435
      0.03333330	     -4.63835608	     -0.47731855	      3.22617641	      0.74824883	      0.92084433	      0.00455720	      5.26153875	      3.67313417	     -4.93780992	      2.93192461	      0.05117174	      1.76276261	    -12.37353614	     -6.73303575	      8.94026511	     -1.02725323	     -1.21985231	      6.87753709	      0.12003567	      7.33432002	     -0.71208946	     -6.73303575	     -0.53498752	      1.78712415	     -2.28341954	     34.06391372	     10.08551966	     54.00553918	    127.08725772	    105.10464512	     33.34282802	      8.03708556	     67.53550324	    126.25653418	    104.89493296
      0.05000000	     -4.77774114	     -0.25642754	      3.24400643	      0.74887160	      0.92361333	      0.00430486	      5.20898110	      3.56891623	     -5.31387730	      2.47572407	      0.04320954	      2.20765242	    -11.65331452	     -6.79461759	      8.88692740	     -0.75914638	     -1.22742988	      6.60755627	      0.11532361	      7.19607549	     -0.55587317	     -6.79461759	     -0.43103846	      1.51891745	     -1.54982759	     32.99402756	      9.85239359	     53.82896879	    126.91852201	    104.05123837	     33.28834049	      8.02839652	     67.85092620	    127.18330261	    103.61288896
      0.06666670	     -4.34940087	     -0.27108476	      3.41969805	      0.75330758	      0.92132127	      0.00795278	      4.32232089	      3.83534997	     -5.86974207	      1.98423794	      0.03463149	      2.71625974	    -10.22044604	     -6.82353044	      8.17174451	     -0.88256399	     -0.97017126	      6.42640689	      0.11216196	      7.17073551	     -0.32855053	     -6.82353044	     -0.81022958	      1.49421216	     -0.87818852	     31.95465962	      9.58786252	     52.07534720	    127.22442853	    103.85923323	     33.49568860	      8.00125721	     68.15904358	    127.98897372	    102.65708020
      0.08333330	     -4.08503461	     -0.15698524	      3.48676861	      0.75362303	      0.92448786	      0.00746449	      3.75212979	      3.85524049	     -6.15017929	      1.74868165	      0.03052025	      2.90124944	     -9.78753531	     -7.10414431	      7.78795256	     -0.87319561	     -0.73322540	      6.41270575	      0.11192283	      7.11145495	     -0.34732505	     -7.10414431	     -1.03911100	      1.36278259	     -0.69196852	     30.67777634	      9.12577215	     50.00039103	    127.71863241	    101.64571649	     33.45293010	      7.59433841	     67.26600930	    128.63064144	     97.52980147
      0.10000000	     -3.81365010	      0.02304210	      3.62426596	      0.75326331	      0.92438951	      0.00752745	      3.21916309	      3.76907157	     -6.12056076	      1.49401101	      0.02607541	      2.73685972	     -9.88656097	     -7.24607410	      7.52369245	     -0.71345307	     -0.58342830	      6.38396273	      0.11142117	      6.96391401	     -0.59310219	     -7.24607410	     -1.32959219	      1.11580788	     -0.72652486	     29.30696352	      8.60661536	     47.44695779	    128.47075333	     99.72462239	     32.89878216	      6.50541593	     65.82592343	    129.36940779	     95.57104124
      0.11666670	     -3.63174015	      0.14650358	      3.86438074	      0.75290408	      0.92232898	      0.00772452	      2.91024108	      3.67539369	     -6.47498524	      1.39387317	      0.02432768	      2.78166389	     -9.67072718	     -7.35862229	      7.35324488	     -0.58797249	     -0.37462802	      6.46473605	      0.11283093	      6.76193348	     -0.91796501	     -7.35862229	     -1.39646443	      0.86287983	     -1.10224405	     28.68169275	      8.65208491	     44.27700327	    129.40731934	     98.60373827	     32.57765539	      6.08686470	     63.65197358	    130.40859445	     95.38494918
      0.13333330	     -3.51700070	      0.23867780	      4.06414863	      0.74796062	      0.92471772	      0.00389337	      2.87368272	      3.50204611	     -6.64508908	      1.36527687	      0.02382858	      2.69759724	     -9.61997435	     -7.36132297	      7.34719062	     -0.37234099	     -0.29666722	      6.42168503	      0.11207955	      6.59654646	     -1.12200839	     -7.36132297	     -1.74559893	      0.84794049	     -1.57857993	     28.24134248	      8.23182794	     40.83080855	    130.71964861	     98.28790299	     31.92534542	      5.54848224	     61.78918572	    131.85768353	     95.29604911
      0.15000000	     -3.30561237	      0.31715531	      3.98896740	      0.74739052	      0.92516844	      0.00449928	      2.78289783	      3.37314896	     -6.56003333	      1.38145408	      0.02411092	      2.65815647	     -9.50177979	     -7.41240734	      7.23737539	     -0.23156697	     -0.23486141	      6.40943286	      0.11186571	      6.35164787	     -1.36256895	     -7.41240734	     -2.11112424	      0.64586445	     -2.04226247	     27.77892552	      7.59989074	     37.34247898	    132.74038151	     96.43779757	     31.51118452	      4.86273406	     59.45821636	    132.39397556	     95.07067033
      0.16666670	     -3.01038699	      0.34881556	      3.61733259	      0.74748759	      0.92784169	      0.00442993	      2.64460757	      3.29135612	     -6.36469459	      1.47700671	      0.02577863	      2.60884809	     -9.30922988	     -7.44793772	      6.86112311	     -0.21175480	     -0.45524222	      6.24756099	      0.10904051	      6.14026854	     -1.19883220	     -7.44793772	     -2.51513749	      0.41105102	     -2.79791356	     27.78803084	      6.99601533	     33.33143850	    134.07034080	     94.99189527	     30.23978876	      3.21199614	     56.24574197	    133.40628214	     94.93076857
      0.18333330	     -2.71938874	      0.37002022	      3.42480879	      0.75187434	      0.92830579	      0.00854970	      2.25511681	      3.33573983	     -6.15882261	      1.33735566	      0.02334126	      2.68798651	     -8.77723929	     -7.44936680	      6.39325823	     -0.27499331	     -0.48583610	      6.12041072	      0.10682132	      6.01456589	     -1.30496709	     -7.44936680	     -2.74415157	      0.09108211	     -3.12468124	     27.45388237	      6.70630899	     29.50127585	    135.10042526	     94.80149751	     28.64060710	      1.75130044	     53.44093683	    134.55113998	     95.03810829
      0.20000000	     -2.47102208	      0.43739749	      3.17138758	      0.75183850	      0.93075276	      0.00836618	      1.87881502	      3.30034595	     -5.94888122	      1.29967605	      0.02268363	      2.65501478	     -8.53828118	     -7.46965720	      5.95394370	     -0.27798087	     -0.62015778	      5.96450891	      0.10410032	      5.84200587	     -1.23922442	     -7.46965720	     -2.79032659	     -0.37482913	     -3.46561619	     27.47830423	      6.71819020	     26.47181262	    136.03269135	     94.12840815	     27.05484113	      0.57437416	     50.57391835	    135.49340021	     96.72045806
      0.21666670	     -2.25814014	      0.47615718	      3.12931842	      0.74678064	      0.92495087	      0.00537037	      1.66208786	      3.26564593	     -5.82490506	      1.30222132	      0.02272805	      2.71440102	     -8.28917729	     -7.47360134	      5.79938335	     -0.21565457	     -0.61029926	      6.02210186	      0.10510551	      5.93596085	     -1.43957918	     -7.47360134	     -2.81751252	     -0.64081314	     -3.83189428	     28.26592587	      6.76098308	     23.57616165	    137.69546816	     92.44830015	     26.50370273	     -0.09018692	     47.54456690	    136.32305926	     95.57827322
      0.23333330	     -2.12378715	      0.49933792	      3.12961677	      0.74652511	      0.92001441	      0.00569072	      1.53830070	      3.20165902	     -5.79001917	      1.46539315	      0.02557594	      2.72634046	     -8.35267623	     -7.47661240	      5.82903527	     -0.15853641	     -0.53615068	      6.26339346	      0.10931684	      6.16889539	     -1.67282769	     -7.47661240	     -2.73749317	     -0.78616822	     -4.03518969	     29.82512361	      6.94907150	     20.93661521	    139.36303613	     91.76400959	     27.02707829	     -0.15341988	     43.49820456	    137.02994509	     95.95612934
      0.25000000	     -2.07878377	      0.56695349	      3.24707132	      0.74690511	      0.92401523	      0.00531195	      1.47630854	      3.05995501	     -5.76993763	      1.59145723	      0.02777617	      2.60172456	     -8.48768709	     -7.47728130	      5.92722709	     -0.06179751	     -0.58053139	      6.43413745	      0.11229688	      6.37138001	     -1.56012208	     -7.47728130	     -2.49651370	     -0.91093331	     -4.08185501	     31.35417123	      7.27806730	     18.96401278	    140.67704394	     91.83649445	     27.70505017	      0.06869366	     39.66172211	    137.58710211	     96.24496099
      0.26666670	     -1.89652163	      0.62858481	      3.22832264	      0.74627358	      0.92939413	      0.00564084	      1.31929469	      2.97434989	     -5.65685946	      1.57590482	      0.02750473	      2.53139994	     -8.34267818	     -7.47820425	      5.77471846	      0.01378085	     -0.59472596	      6.45125770	      0.11259569	      6.44038042	     -1.48837036	     -7.47820425	     -2.34159709	     -1.05583035	     -3.77294441	     32.72077891	      7.63446194	     17.69897154	    141.77417480	     91.94738062	     28.19694829	      0.34800143	     36.66449645	    138.55715659	     96.71935740
      0.28333330	     -1.69570765	      0.65489172	      3.44821932	      0.74646023	      0.93248807	      0.00508925	      1.05064755	      2.93052421	     -5.88068288	      1.45138002	      0.02533136	      2.28642840	     -8.09230077	     -7.49322485	      5.58036321	      0.06834197	     -0.44474066	      6.37688558	      0.11129765	      6.23738180	     -1.46803695	     -7.49322485	     -2.33411186	     -1.13669062	     -3.74317644	     33.88253445	      8.07021336	     17.13717205	    142.77306921	     92.52855227	     28.60893517	      0.94921893	     34.47229087	    139.76539567	     98.82427175
      0.30000000	     -1.52024691	      0.72859619	      3.66153791	      0.75180701	      0.93496473	      0.00163659	      0.64980758	      2.75001509	     -6.01488069	      1.28718635	      0.02246564	      1.84426651	     -8.03450036	     -7.49335270	      5.12562012	      0.23366531	     -0.30692149	      5.98231645	      0.10441112	      6.01181126	     -1.29070886	     -7.49335270	     -2.26245110	     -1.14645315	     -3.75323777	     34.74969918	      8.61309043	     16.99560442	    143.92056345	     92.57090101	     29.18818217	      2.01477936	     33.04513933	    140.68903521	     98.69563629
